<svg xmlns="http://www.w3.org/2000/svg" xmlns:xlink="http://www.w3.org/1999/xlink" width="512" zoomAndPan="magnify" viewBox="0 0 384 383.999986" height="512" preserveAspectRatio="xMidYMid meet" version="1.0"><defs><g/><clipPath id="25c9588ebf"><path d="M 13.820312 14.015625 L 370.179688 14.015625 L 370.179688 370.375 L 13.820312 370.375 Z M 13.820312 14.015625 " clip-rule="nonzero"/></clipPath><clipPath id="0b9fd7e374"><path d="M 31.820312 14.015625 L 352.179688 14.015625 C 356.953125 14.015625 361.53125 15.910156 364.910156 19.285156 C 368.285156 22.660156 370.179688 27.242188 370.179688 32.015625 L 370.179688 352.375 C 370.179688 357.148438 368.285156 361.726562 364.910156 365.101562 C 361.53125 368.480469 356.953125 370.375 352.179688 370.375 L 31.820312 370.375 C 27.046875 370.375 22.46875 368.480469 19.089844 365.101562 C 15.714844 361.726562 13.820312 357.148438 13.820312 352.375 L 13.820312 32.015625 C 13.820312 27.242188 15.714844 22.660156 19.089844 19.285156 C 22.46875 15.910156 27.046875 14.015625 31.820312 14.015625 Z M 31.820312 14.015625 " clip-rule="nonzero"/></clipPath><clipPath id="544e0e6356"><path d="M 0.820312 0.015625 L 357.179688 0.015625 L 357.179688 356.375 L 0.820312 356.375 Z M 0.820312 0.015625 " clip-rule="nonzero"/></clipPath><clipPath id="c306bda413"><path d="M 18.820312 0.015625 L 339.179688 0.015625 C 343.953125 0.015625 348.53125 1.910156 351.910156 5.285156 C 355.285156 8.660156 357.179688 13.242188 357.179688 18.015625 L 357.179688 338.375 C 357.179688 343.148438 355.285156 347.726562 351.910156 351.101562 C 348.53125 354.480469 343.953125 356.375 339.179688 356.375 L 18.820312 356.375 C 14.046875 356.375 9.46875 354.480469 6.089844 351.101562 C 2.714844 347.726562 0.820312 343.148438 0.820312 338.375 L 0.820312 18.015625 C 0.820312 13.242188 2.714844 8.660156 6.089844 5.285156 C 9.46875 1.910156 14.046875 0.015625 18.820312 0.015625 Z M 18.820312 0.015625 " clip-rule="nonzero"/></clipPath><clipPath id="d7bd2592b4"><rect x="0" width="358" y="0" height="357"/></clipPath><clipPath id="47b8d00bc5"><path d="M 0.359375 0.921875 L 158 0.921875 L 158 323 L 0.359375 323 Z M 0.359375 0.921875 " clip-rule="nonzero"/></clipPath><clipPath id="34e5106392"><rect x="0" width="158" y="0" height="323"/></clipPath><clipPath id="32c71e57f1"><path d="M 149 3 L 193.320312 3 L 193.320312 51 L 149 51 Z M 149 3 " clip-rule="nonzero"/></clipPath><clipPath id="71e3efb519"><path d="M 11 0.078125 L 33 0.078125 L 33 36 L 11 36 Z M 11 0.078125 " clip-rule="nonzero"/></clipPath><clipPath id="ffe516baa4"><path d="M 31 0.078125 L 43 0.078125 L 43 36 L 31 36 Z M 31 0.078125 " clip-rule="nonzero"/></clipPath><clipPath id="7c2a05a21c"><rect x="0" width="45" y="0" height="48"/></clipPath><clipPath id="8d698f7d07"><rect x="0" width="194" y="0" height="323"/></clipPath></defs><g clip-path="url(#25c9588ebf)"><g clip-path="url(#0b9fd7e374)"><g transform="matrix(1, 0, 0, 1, 13, 14)"><g clip-path="url(#d7bd2592b4)"><g clip-path="url(#544e0e6356)"><g clip-path="url(#c306bda413)"><path fill="#181818" d="M 0.820312 0.015625 L 357.179688 0.015625 L 357.179688 356.375 L 0.820312 356.375 Z M 0.820312 0.015625 " fill-opacity="1" fill-rule="nonzero"/></g></g></g></g></g></g><g transform="matrix(1, 0, 0, 1, 117, 61)"><g clip-path="url(#8d698f7d07)"><g clip-path="url(#47b8d00bc5)"><g><g clip-path="url(#34e5106392)"><g fill="#f5f0e8" fill-opacity="1"><g transform="translate(2.090016, 265.715382)"><g><path d="M 79.214844 -79.214844 L 88.328125 -22.972656 L 73.671875 -22.972656 L 73.671875 0 L 153.679688 0 L 153.679688 -22.972656 L 141.003906 -22.972656 L 103.378906 -264.1875 L 39.609375 -264.1875 L 11.089844 -22.972656 L 0 -22.972656 L 0 0 L 47.53125 0 L 47.53125 -22.972656 L 32.875 -22.972656 L 39.609375 -79.214844 Z M 75.652344 -101.792969 L 42.777344 -101.792969 L 58.222656 -225.371094 Z M 75.652344 -101.792969 "/></g></g></g></g></g></g><g clip-path="url(#32c71e57f1)"><g transform="matrix(1, 0, 0, 1, 149, 3)"><g clip-path="url(#7c2a05a21c)"><g fill="#f5f0e8" fill-opacity="1"><g transform="translate(1.206, 35.005504)"><g><path d="M 5.363281 -8.171875 C 3.332031 -8.171875 1.71875 -6.300781 1.71875 -3.957031 C 1.71875 -1.5625 3.28125 0.363281 5.257812 0.363281 C 7.234375 0.363281 8.851562 -1.5625 8.851562 -3.90625 C 8.851562 -6.246094 7.234375 -8.171875 5.363281 -8.171875 Z M 5.363281 -8.171875 "/></g></g></g><g clip-path="url(#71e3efb519)"><g fill="#f5f0e8" fill-opacity="1"><g transform="translate(11.825211, 35.005504)"><g><path d="M 10.410156 -10.410156 L 11.609375 -3.019531 L 9.683594 -3.019531 L 9.683594 0 L 20.199219 0 L 20.199219 -3.019531 L 18.53125 -3.019531 L 13.585938 -34.722656 L 5.207031 -34.722656 L 1.457031 -3.019531 L 0 -3.019531 L 0 0 L 6.246094 0 L 6.246094 -3.019531 L 4.320312 -3.019531 L 5.207031 -10.410156 Z M 9.941406 -13.378906 L 5.621094 -13.378906 L 7.652344 -29.621094 Z M 9.941406 -13.378906 "/></g></g></g></g><g clip-path="url(#ffe516baa4)"><g fill="#f5f0e8" fill-opacity="1"><g transform="translate(30.981432, 35.005504)"><g><path d="M 9.578125 -31.703125 L 11.296875 -31.703125 L 11.296875 -34.722656 L 0.988281 -34.722656 L 0.988281 -31.703125 L 2.707031 -31.703125 L 2.707031 -3.019531 L 0.988281 -3.019531 L 0.988281 0 L 11.296875 0 L 11.296875 -3.019531 L 9.578125 -3.019531 Z M 9.578125 -31.703125 "/></g></g></g></g></g></g></g></g></g></svg>
